# AST/ASF file generated using VICON BodyLanguage
# -----------------------------------------------
:version 1.10
:name VICON
:units
  mass 1.0
  length 0.45
  angle deg
:documentation
   .ast/.asf automatically generated from VICON data using
   VICON BodyBuilder and BodyLanguage model FoxedUp or BRILLIANT.MOD
:root
   order TX TY TZ RX RY RZ
   axis XYZ
   position 0 0 0  
   orientation 0 0 0 
:bonedata
  begin
     id 1 
     name lhipjoint
     direction 0.690799 -0.707083 0.151096 
     length 2.54797 
     axis 0 0 0  XYZ
  end
  begin
     id 2 
     name lfemur
     direction 0.34202 -0.939693 0  
     length 7.21646  
     axis 0 0 20  XYZ
    dof rx ry rz
    limits (-160.0 20.0)
           (-70.0 70.0)
           (-60.0 70.0)
  end
  begin
     id 3 
     name ltibia
     direction 0.34202 -0.939693 0   
     length 8.16759   
     axis 0 0 20   XYZ
    dof rx
    limits (-10.0 170.0)
  end
  begin
     id 4 
     name lfoot
     direction 0.0487203 -0.133858 0.989802   
     length 1.93375   
     axis -90 7.62852e-016 20   XYZ
    dof rx rz
    limits (-45.0 90.0)
           (-70.0 20.0)
  end
  begin
     id 5 
     name ltoes
     direction 1.53453e-011 -4.21783e-011 1   
     length 0.979747   
     axis -90 7.62852e-016 20   XYZ
    dof rx
    limits (-90.0 20.0)
  end
  begin
     id 6 
     name rhipjoint
     direction -0.694693 -0.703425 0.150315   
     length 2.56122  
     axis 0 0 0  XYZ 
  end
  begin
     id 7 
     name rfemur
     direction -0.34202 -0.939693 0   
     length 7.36786   
     axis 0 0 -20   XYZ
    dof rx ry rz
    limits (-160.0 20.0)
           (-70.0 70.0)
           (-70.0 60.0)
  end
  begin
     id 8 
     name rtibia
     direction -0.34202 -0.939693 0   
     length 8.07288   
     axis 0 0 -20   XYZ
    dof rx
    limits (-10.0 170.0)
 end
 begin
     id 9 
     name rfoot
     direction -0.0428397 -0.117701 0.992125   
     length 1.88295  
     axis -90 -7.62852e-016 -20   XYZ
    dof rx rz
    limits (-45.0 90.0)
           (-20.0 70.0)
  end
  begin
     id 10 
     name rtoes
     direction -1.53456e-011 -4.2187e-011 1   
     length 0.955578   
     axis -90 -7.62852e-016 -20   XYZ
    dof rx
    limits (-90.0 20.0)
  end
  begin
     id 11 
     name lowerback
     direction 0.0288145 0.999398 -0.0193241   
     length 1.92149   
     axis 0 0 0   XYZ
    dof rx ry rz
    limits (-20.0 45.0)
           (-30.0 30.0)
           (-30.0 30.0)
  end
  begin
     id 12 
     name upperback
     direction 0.0233784 0.998099 0.0570278   
     length 1.90435   
     axis 0 0 0   XYZ
    dof rx ry rz
    limits (-20.0 45.0)
           (-30.0 30.0)
           (-30.0 30.0)
  end
  begin
     id 13 
     name thorax
     direction 0.0096694 0.997833 0.0650817   
     length 1.9111   
     axis 0 0 0   XYZ
    dof rx ry rz
    limits (-20.0 45.0)
           (-30.0 30.0)
           (-30.0 30.0)
  end
  begin
     id 14 
     name lowerneck
     direction 0.00516803 0.999916 0.0118722   
     length 1.74664   
     axis 0 0 0   XYZ
    dof rx ry rz
    limits (-20.0 45.0)
           (-30.0 30.0)
           (-30.0 30.0)
  end
  begin
     id 15 
     name upperneck
     direction -0.0510851 0.996117 -0.071696   
     length 1.68498   
     axis 0 0 0   XYZ
    dof rx ry rz
    limits (-20.0 45.0)
           (-30.0 30.0)
           (-30.0 30.0)
  end
  begin
     id 16
     name head
     direction -0.019188 0.999436 -0.0275702  
     length 1.83483  
     axis 0 0 0   XYZ
    dof rx ry rz
    limits (-20.0 45.0)
           (-30.0 30.0)
           (-30.0 30.0)
  end
  begin
     id 17 
     name lclavicle
     direction 0.967006 0.248456 -0.0562957  
     length 3.39395  
     axis 0 0 0   XYZ
    dof ry rz
    limits (-20.0 10.0)
           (0.0 20.0)
  end
  begin
     id 18 
     name lhumerus
     direction 1 -4.48962e-011 -5.62711e-019   
     length 5.24318   
     axis 180 -30 -90   XYZ
    dof rx ry rz
    limits (-60.0 90.0)
           (-90.0 90.0)
           (-90.0 90.0)
  end
  begin
     id 19
     name lradius
     direction 1 -4.48966e-011 7.90625e-027   
     length 2.98999   
     axis 180 -30 -90   XYZ
    dof rx
    limits (-10.0 170.0)
  end
  begin
     id 20
     name lwrist
     direction 1 -4.48959e-011 1.61068e-026   
     length 1.49499   
     axis -9.31229e-015 90 90   XYZ
    dof ry
    limits (-180.0 0.0)
 end
  begin
     id 21 
     name lhand
     direction 1 -4.49017e-011 3.22136e-026   
     length 0.726745   
     axis -2.0555e-014 90 90   XYZ
    dof rx rz
    limits (-90.0 90.0)
           (-45.0 45.0)
  end
  begin
     id 22 
     name lfingers
     direction 1 -4.4898e-011 6.44272e-026   
     length 0.58592   
     axis -4.11101e-014 90 90   XYZ
    dof rx
    limits (0.0 90.0)
  end
  begin
     id 23
     name lthumb
     direction 0.707107 -6.34922e-011 0.707107   
     length 0.841268   
     axis -90 45 2.85299e-015   XYZ
    dof rx rz
    limits (-45.0 45.0)
           (-45.0 45.0)
  end
  begin
     id 24 
     name rclavicle
     direction -0.972232 0.230238 0.0419005   
     length 3.40416  
     axis 0 0 0   XYZ 
    dof ry rz
    limits (-10.0 20.0)
           (-20.0 0.0)
  end
  begin
     id 25 
     name rhumerus
     direction -1 -4.48976e-011 2.48487e-027  
     length 5.37045   
     axis 180 30 90   XYZ
    dof rx ry rz
    limits (-90.0 60.0)
           (-90.0 90.0)
           (-90.0 90.0)
  end
  begin
     id 26 
     name rradius
     direction -1 -4.48942e-011 7.87951e-027   
     length 2.92792   
     axis 180 30 90   XYZ
    dof rx
    limits (-10.0 170.0)
  end
  begin
     id 27 
     name rwrist
     direction -1 -4.48969e-011 1.61068e-026   
     length 1.46396   
     axis -9.31229e-015 -90 -90   XYZ
    dof ry
    limits (-180.0 0.0)
  end
  begin
     id 28
     name rhand
     direction -1 -4.49043e-011 3.22136e-026   
     length 0.784497   
     axis -2.0555e-014 -90 -90   XYZ
    dof rx rz
    limits (-90.0 90.0)
           (-45.0 45.0)
  end
  begin
     id 29
     name rfingers
     direction -1 -4.48823e-011 6.44272e-026   
     length 0.632482   
     axis -4.11101e-014 -90 -90   XYZ
    dof rx
    limits (0.0 90.0)
  end
  begin
     id 30
     name rthumb
     direction -0.707107 -6.34923e-011 0.707107   
     length 0.908121   
     axis -90 -45 -2.85299e-015   XYZ
    dof rx rz
    limits (-45.0 45.0)
           (-45.0 45.0)
  end
:hierarchy
  begin
    root lhipjoint rhipjoint lowerback
    lhipjoint lfemur
    lfemur ltibia
    ltibia lfoot
    lfoot ltoes
    rhipjoint rfemur
    rfemur rtibia
    rtibia rfoot
    rfoot rtoes
    lowerback upperback
    upperback thorax
    thorax lowerneck lclavicle rclavicle
    lowerneck upperneck
    upperneck head
    lclavicle lhumerus
    lhumerus lradius
    lradius lwrist
    lwrist lhand lthumb
    lhand lfingers
    rclavicle rhumerus
    rhumerus rradius
    rradius rwrist
    rwrist rhand rthumb
    rhand rfingers
  end

#!OML:ASF E:\Style6\Style6.ASF
:FULLY-SPECIFIED
:DEGREES
1497
root 0.370964 16.7363 1.04581 11.8088 16.4609 -1.57091
lowerback 6.43444 1.75548 2.57114
upperback -5.44347 2.8001 1.66996
thorax -9.35186 1.26504 -0.0709521
lowerneck 1.49532 12.1373 7.0833
upperneck 1.38017 16.471 -8.65998
head 1.62185 8.26037 -3.68847
rclavicle 6.61953e-014 1.82882e-014
rhumerus -74.3645 -7.05075 -74.2991
rradius 113.946
rwrist -28.0207
rhand 56.942 -0.288068
rfingers 7.12502
rthumb 73.6661 21.86
lclavicle 6.61953e-014 1.82882e-014
lhumerus -71.71 -19.5609 95.7876
lradius 111.129
lwrist 42.2528
lhand 33.4797 46.4137
lfingers 7.12502
lthumb 56.8052 63.1608
rfemur -34.7269 -29.6457 24.7718
rtibia 52.5044
rfoot -22.4113 0.917712
rtoes -14.8794
lfemur -38.4344 0.198242 -15.2052
ltibia 54.3537
lfoot -22.6243 -5.41152
ltoes -15.7195
1498
root 0.363773 16.739 1.03151 11.8062 16.9077 -1.43175
lowerback 6.52424 1.69695 2.38381
upperback -5.57207 2.71185 1.6858
thorax -9.55722 1.23233 0.0584696
lowerneck 1.66207 12.0877 6.92211
upperneck 1.75162 16.4197 -8.29405
head 1.65793 8.23569 -3.544
rclavicle 1.76918e-014 1.90833e-014
rhumerus -73.7971 -7.56296 -74.3261
rradius 113.399
rwrist -28.6033
rhand 58.5519 -0.647383
rfingers 7.12502
rthumb 74.2233 26.7518
lclavicle 1.76918e-014 1.90833e-014
lhumerus -70.7338 -19.0996 96.115
lradius 110.603
lwrist 41.2851
lhand 34.8247 47.3614
lfingers 7.12502
lthumb 57.9843 63.0969
rfemur -34.6105 -29.5384 24.6639
rtibia 52.3215
rfoot -22.3331 0.335353
rtoes -15.3302
lfemur -38.5074 0.120876 -15.3009
ltibia 54.2101
lfoot -22.4755 -5.71164
ltoes -16.0206
1499
root 0.356614 16.7467 1.02631 11.9219 17.6182 -1.5169
lowerback 6.29136 1.51589 2.4657
upperback -5.73547 2.48359 1.78101
thorax -9.60333 1.1197 0.152184
lowerneck 1.75964 12.1254 6.83947
upperneck 2.26451 16.4934 -8.00848
head 1.77927 8.27169 -3.42312
rclavicle -2.89729e-014 -1.03368e-014
rhumerus -73.0281 -7.78006 -74.59
rradius 112.882
rwrist -29.2325
rhand 59.9156 -1.48926
rfingers 7.12502
rthumb 74.5822 30.6251
lclavicle -2.89729e-014 -1.03368e-014
lhumerus -69.8062 -18.7965 96.4958
lradius 110.073
lwrist 40.4567
lhand 36.0357 48.0575
lfingers 7.12502
lthumb 59.0358 62.8117
rfemur -34.6399 -29.6703 24.946
rtibia 52.1294
rfoot -22.4004 -0.319126
rtoes -16.4858
lfemur -38.7941 -0.0626312 -15.1132
ltibia 54.0805
lfoot -22.3336 -6.25113
ltoes -15.4803
1500
root 0.349095 16.7586 1.03121 12.0867 18.4515 -1.75924
lowerback 5.83434 1.28036 2.70902
upperback -5.93993 2.1944 1.91586
thorax -9.55823 0.969454 0.210813
lowerneck 1.68304 12.2153 6.84198
upperneck 3.11558 16.6471 -7.7046
head 2.05654 8.34327 -3.2828
rclavicle -1.04859e-014 -1.59028e-015
rhumerus -72.1858 -7.77801 -75.0611
rradius 112.387
rwrist -29.4289
rhand 61.025 -2.41469
rfingers 7.12502
rthumb 74.792 33.6789
lclavicle -1.04859e-014 -1.59028e-015
lhumerus -69.0805 -18.7295 96.876
lradius 109.589
lwrist 40.0745
lhand 36.9917 48.168
lfingers 7.12502
lthumb 59.8581 62.0964
rfemur -34.7145 -29.9095 25.4682
rtibia 51.898
rfoot -22.4527 -0.850832
rtoes -17.2315
lfemur -39.1699 -0.280559 -14.7317
ltibia 53.9314
lfoot -22.1848 -6.90727
ltoes -14.7214
1501
root 0.346037 16.7722 1.03633 12.0365 19.267 -1.92313
lowerback 5.73547 1.02137 2.98053
upperback -6.17158 1.8861 1.9834
thorax -9.75513 0.800884 0.175158
lowerneck 1.61869 12.2945 6.96212
upperneck 4.1088 16.7947 -7.40297
head 2.39263 8.41434 -3.15942
rclavicle 1.77415e-014 -1.11319e-014
rhumerus -71.4121 -7.59884 -75.65
rradius 112.002
rwrist -29.2072
rhand 62.2223 -2.56806
rfingers 7.12502
rthumb 74.932 37.9225
lclavicle 1.77415e-014 -1.11319e-014
lhumerus -68.6363 -18.9137 97.2428
lradius 109.108
lwrist 40.219
lhand 37.5938 48.0565
lfingers 7.12502
lthumb 60.3724 61.4398
rfemur -34.4893 -30.2799 25.7499
rtibia 51.6589
rfoot -22.498 -1.08686
rtoes -16.8855
lfemur -39.2537 -0.597355 -14.4333
ltibia 53.7635
lfoot -22.0795 -7.49723
ltoes -14.1704
1502
root 0.345947 16.7848 1.04114 11.7998 20.1542 -1.8701
lowerback 5.92045 0.703662 3.14631
upperback -6.31783 1.48855 1.9583
thorax -10.0311 0.590615 0.109267
lowerneck 1.41531 12.3842 7.16124
upperneck 5.09693 16.949 -7.14669
head 2.76897 8.48846 -3.05348
rclavicle 3.62285e-014 -3.97569e-015
rhumerus -70.659 -7.28933 -76.3079
rradius 111.873
rwrist -28.6309
rhand 63.4256 -1.68123
rfingers 7.12502
rthumb 74.9797 43.284
lclavicle 3.62285e-014 -3.97569e-015
lhumerus -68.2907 -19.4379 97.546
lradius 108.637
lwrist 40.8966
lhand 37.6248 48.2181
lfingers 7.12502
lthumb 60.3988 61.5729
rfemur -33.9703 -30.8924 25.6613
rtibia 51.4859
rfoot -22.5775 -1.33069
rtoes -17.0809
lfemur -39.0455 -1.14299 -14.3498
ltibia 53.5815
lfoot -21.9756 -7.93624
ltoes -13.5808
1503
root 0.34461 16.7862 1.03991 11.9216 20.7706 -1.6689
lowerback 5.85987 0.458044 3.13703
upperback -6.54566 1.15296 1.84313
thorax -10.2526 0.419915 0.0414857
lowerneck 1.26642 12.4987 7.4359
upperneck 5.86929 17.1259 -6.92922
head 3.08006 8.57882 -2.9809
rclavicle -3.51973e-014 -3.18055e-015
rhumerus -70.0088 -6.90605 -76.9932
rradius 111.943
rwrist -27.8583
rhand 64.859 -1.99927
rfingers 7.12502
rthumb 74.9139 48.2921
lclavicle -3.51973e-014 -3.18055e-015
lhumerus -68.2421 -20.228 97.7328
lradius 108.354
lwrist 41.9834
lhand 37.4381 48.5615
lfingers 7.12502
lthumb 60.2397 62.0877
rfemur -33.9785 -31.3167 25.5959
rtibia 51.4248
rfoot -22.6489 -1.52398
rtoes -16.9872
lfemur -39.1812 -1.48497 -14.4739
ltibia 53.4239
lfoot -21.8737 -8.1484
ltoes -13.9074
